<svg width="50" height="50" xmlns="http://www.w3.org/2000/svg">
 <!-- Created with Method Draw - http://github.com/duopixel/Method-Draw/ -->
 <g>
  <title>background</title>
  <rect fill="none" id="canvas_background" height="52" width="52" y="-1" x="-1"/>
  <g display="none" overflow="visible" y="0" x="0" height="100%" width="100%" id="canvasGrid">
   <rect fill="url(#gridpattern)" stroke-width="0" y="0" x="0" height="100%" width="100%"/>
  </g>
 </g>
 <g>
  <title>Layer 1</title>
  <path stroke="#000" stroke-width="0" id="svg_1" d="m49.148397,42.059193l-6.626567,-12.65934c-1.997886,-3.815492 -5.265701,-10.061756 -7.263599,-13.877986l-6.625948,-12.658572c-1.999868,-3.81773 -5.267682,-3.81773 -7.264905,0l-6.624606,12.658572c-1.997886,3.81623 -5.267692,10.063948 -7.264919,13.877986l-6.625281,12.65934c-1.997882,3.819173 -0.362635,6.940823 3.632467,6.940823l41.026927,0c3.999092,0 5.632314,-3.121652 3.636427,-6.940823l0.000002,0zm-22.256394,1.959763l-3.930197,0l0,-4.16241l3.930197,0l0,4.16241zm-0.189348,-7.229435l-3.548147,0l-0.352613,-17.809417l4.221909,0l-0.321147,17.809417l-0.000002,0z" fill="#ff5656"/>
 </g>
</svg>